<mxfile host="app.diagrams.net" modified="2025-09-03T00:00:00Z" agent="CFB App" version="22.1.0"><diagram id="mock-flow" name="Mock Draft Flow"><mxGraphModel><root><mxCell id="0"/><mxCell id="1" parent="0"/>
  <mxCell id="start" value="Create Mock Draft (drafts.isMock=true)" style="rounded=1;whiteSpace=wrap;html=1;fillColor=#dae8fc;strokeColor=#6c8ebf;" vertex="1" parent="1"><mxGeometry x="40" y="40" width="280" height="60" as="geometry"/></mxCell>
  <mxCell id="loadPool" value="Load Player Pool (college_players)\nFilter: Power4 + positions + draftable=true" style="rounded=1;whiteSpace=wrap;html=1;fillColor=#fff2cc;strokeColor=#d6b656;" vertex="1" parent="1"><mxGeometry x="360" y="40" width="320" height="80" as="geometry"/></mxCell>
  <mxCell id="computeProj" value="Compute Projections (server)\nBase + depth multipliers + prev stats + SoS" style="rounded=1;whiteSpace=wrap;html=1;fillColor=#fff2cc;strokeColor=#d6b656;" vertex="1" parent="1"><mxGeometry x="720" y="40" width="320" height="80" as="geometry"/></mxCell>
  <mxCell id="turn" value="getTurn(draftState)\nSnake order by round" style="rounded=1;whiteSpace=wrap;html=1;fillColor=#d5e8d4;strokeColor=#82b366;" vertex="1" parent="1"><mxGeometry x="40" y="160" width="260" height="70" as="geometry"/></mxCell>
  <mxCell id="pick" value="applyPick(mock)\n- Validate availability\n- Prevent duplicates\n- Update draftState" style="rounded=1;whiteSpace=wrap;html=1;fillColor=#d5e8d4;strokeColor=#82b366;" vertex="1" parent="1"><mxGeometry x="340" y="160" width="300" height="100" as="geometry"/></mxCell>
  <mxCell id="advance" value="Advance Clock (mock no timer)\nNext team â†’ getTurn()" style="rounded=1;whiteSpace=wrap;html=1;fillColor=#e1d5e7;strokeColor=#9673a6;" vertex="1" parent="1"><mxGeometry x="680" y="170" width="280" height="80" as="geometry"/></mxCell>
  <mxCell id="results" value="Results View (/mock-draft/[id]/results)\nExport board" style="rounded=1;whiteSpace=wrap;html=1;fillColor=#f8cecc;strokeColor=#b85450;" vertex="1" parent="1"><mxGeometry x="1000" y="170" width="300" height="80" as="geometry"/></mxCell>
  <mxCell id="e1" edge="1" source="start" target="loadPool"><mxGeometry relative="1" as="geometry"/></mxCell>
  <mxCell id="e2" edge="1" source="loadPool" target="computeProj"><mxGeometry relative="1" as="geometry"/></mxCell>
  <mxCell id="e3" edge="1" source="computeProj" target="turn"><mxGeometry relative="1" as="geometry"/></mxCell>
  <mxCell id="e4" edge="1" source="turn" target="pick"><mxGeometry relative="1" as="geometry"/></mxCell>
  <mxCell id="e5" edge="1" source="pick" target="advance"><mxGeometry relative="1" as="geometry"/></mxCell>
  <mxCell id="e6" edge="1" source="advance" target="results"><mxGeometry relative="1" as="geometry"/></mxCell>
</root></mxGraphModel></diagram></mxfile>